<svg xmlns="http://www.w3.org/2000/svg" xmlns:xlink="http://www.w3.org/1999/xlink" xmlns:sketch="http://www.bohemiancoding.com/sketch/ns" viewBox="0 0 60 75" version="1.1" x="0px" y="0px"><title>27 - Chariot Wheel (Solid)</title><desc>Created with Sketch.</desc><g stroke="none" stroke-width="1" fill="none" fill-rule="evenodd" sketch:type="MSPage"><g sketch:type="MSLayerGroup" fill="#000000"><path d="M30,0 C13.458,0 0,13.458 0,30 C0,46.542 13.458,60 30,60 C46.542,60 60,46.542 60,30 C60,13.458 46.542,0 30,0 L30,0 Z M50.236,42.907 C50.028,43.232 49.812,43.551 49.588,43.866 C49.556,43.911 49.525,43.957 49.493,44.002 C49.278,44.3 49.055,44.591 48.828,44.879 C48.783,44.935 48.74,44.994 48.694,45.05 C48.473,45.324 48.244,45.591 48.011,45.855 C47.957,45.917 47.905,45.981 47.85,46.042 C47.565,46.359 47.272,46.67 46.971,46.971 C46.668,47.274 46.357,47.567 46.039,47.853 C45.983,47.903 45.925,47.95 45.869,48 C45.599,48.238 45.325,48.472 45.045,48.698 C44.994,48.739 44.942,48.778 44.891,48.819 C44.597,49.051 44.3,49.278 43.996,49.497 C43.956,49.526 43.915,49.554 43.874,49.583 C43.556,49.808 43.233,50.027 42.904,50.238 C42.888,50.248 42.872,50.258 42.857,50.268 L34.831,36.369 C34.851,36.353 34.868,36.334 34.889,36.318 C35.423,35.903 35.903,35.423 36.318,34.889 C36.334,34.868 36.353,34.851 36.369,34.831 L50.268,42.857 C50.257,42.873 50.247,42.89 50.236,42.907 L50.236,42.907 Z M9.769,17.086 C9.973,16.768 10.185,16.456 10.403,16.148 C10.44,16.096 10.476,16.043 10.514,15.991 C10.722,15.702 10.938,15.42 11.158,15.14 C11.21,15.075 11.259,15.009 11.311,14.945 C11.524,14.68 11.746,14.423 11.97,14.168 C12.032,14.098 12.09,14.025 12.153,13.956 C12.437,13.64 12.729,13.331 13.029,13.03 C13.331,12.729 13.641,12.436 13.959,12.151 C14.02,12.095 14.085,12.043 14.147,11.988 C14.41,11.756 14.677,11.527 14.95,11.307 C15.007,11.261 15.066,11.217 15.124,11.171 C15.411,10.944 15.702,10.721 16,10.507 C16.043,10.476 16.087,10.446 16.131,10.415 C16.45,10.189 16.773,9.969 17.103,9.759 C17.116,9.75 17.13,9.741 17.144,9.733 L25.169,23.631 C25.149,23.647 25.132,23.666 25.111,23.682 C24.576,24.097 24.097,24.577 23.682,25.111 C23.666,25.132 23.647,25.149 23.631,25.169 L9.733,17.144 C9.745,17.125 9.757,17.106 9.769,17.086 L9.769,17.086 Z M36.318,25.111 C35.903,24.577 35.423,24.097 34.889,23.682 C34.868,23.666 34.851,23.647 34.831,23.631 L42.848,9.746 C45.825,11.641 48.359,14.175 50.254,17.152 L36.369,25.169 C36.353,25.149 36.334,25.132 36.318,25.111 L36.318,25.111 Z M25.169,36.369 L17.151,50.254 C14.174,48.359 11.641,45.826 9.746,42.849 L23.631,34.831 C23.647,34.851 23.666,34.868 23.682,34.889 C24.097,35.423 24.576,35.903 25.111,36.318 C25.132,36.334 25.149,36.353 25.169,36.369 L25.169,36.369 Z M35,30 C35,32.758 32.758,35 30,35 C27.242,35 25,32.758 25,30 C25,27.242 27.242,25 30,25 C32.758,25 35,27.242 35,30 L35,30 Z M33.102,22.626 C32.442,22.348 31.736,22.162 31,22.07 L31,6.025 C34.578,6.171 38.018,7.101 41.123,8.734 L33.102,22.626 L33.102,22.626 Z M29,22.07 C28.264,22.162 27.557,22.348 26.898,22.627 L18.873,8.727 C21.977,7.098 25.418,6.171 29,6.025 L29,22.07 L29,22.07 Z M22.626,26.898 C22.348,27.558 22.162,28.264 22.069,29 L6.024,29 C6.17,25.419 7.098,21.978 8.727,18.873 L22.626,26.898 L22.626,26.898 Z M22.069,31 C22.162,31.736 22.348,32.442 22.626,33.102 L8.733,41.124 C7.101,38.018 6.171,34.578 6.024,31 L22.069,31 L22.069,31 Z M26.898,37.374 C27.558,37.652 28.264,37.838 29,37.931 L29,53.976 C25.422,53.829 21.982,52.899 18.876,51.267 L26.898,37.374 L26.898,37.374 Z M31,37.931 C31.736,37.838 32.442,37.652 33.102,37.373 L41.128,51.274 C38.023,52.902 34.582,53.83 31,53.976 L31,37.931 L31,37.931 Z M37.373,33.102 C37.652,32.442 37.838,31.736 37.93,31 L53.975,31 C53.83,34.582 52.902,38.023 51.274,41.128 L37.373,33.102 L37.373,33.102 Z M37.93,29 C37.838,28.264 37.652,27.558 37.373,26.898 L51.266,18.877 C52.899,21.982 53.829,25.422 53.975,29 L37.93,29 L37.93,29 Z" sketch:type="MSShapeGroup"/></g></g></svg>