<svg xmlns:dc="http://purl.org/dc/elements/1.1/" xmlns:cc="http://creativecommons.org/ns#" xmlns:rdf="http://www.w3.org/1999/02/22-rdf-syntax-ns#" xmlns:svg="http://www.w3.org/2000/svg" xmlns="http://www.w3.org/2000/svg" xmlns:sodipodi="http://sodipodi.sourceforge.net/DTD/sodipodi-0.dtd" xmlns:inkscape="http://www.inkscape.org/namespaces/inkscape" viewBox="0 0 100 125" version="1.1" x="0px" y="0px"><g transform="translate(0,-952.36216)"><path style="" d="m 20.109194,973.56226 -3.04809,0.6638 -7.9678102,7.1227 -1.2094,-1.4284 -1.061,0.8969 1.30692,1.5442 c -0.13924,-0.047 -0.28488,-0.073 -0.43187,-0.076 -1.05139,-0.024 -1.77514,1.0476 -1.35959,2.0136 0.02,0.049 0.0399,0.093 0.0602,0.1419 l -1.39855,1.1824 0.71228,0.842 1.13736,-0.9622 c 1.30826,3.0068 2.54076,5.155 4.1615402,6.6587 1.75362,1.6271 3.95377,2.3047 6.54072,2.3586 l 0,11.64184 c 1.1998,-0.4943 2.39281,-1.1258 3.59864,-1.7792 1.295,-0.7017 2.64796,-1.4439 4.10179,-2.0158 l 0,-7.83254 11.35353,0 c 0.8089,0.013 1.47163,-0.6393 1.47163,-1.4484 0,-0.809 -0.66273,-1.4611 -1.47163,-1.4482 l -11.35353,0 -7.70043,0 c -2.1083,-0.041 -3.36828,-0.4679 -4.57724,-1.5895 -1.22214,-1.1338 -2.41814,-3.1773 -3.7944902,-6.4429 l 1.5734702,1.8601 1.06108,-0.8977 -1.20814,-1.4286 8.3438,-6.6792 1.1589,-2.8954 0,0 0,0 z m 1.30148,9.7715 c -2.04013,0 -3.69451,1.6499 -3.69451,3.6773 0,2.04 1.65438,3.6775 3.69451,3.6775 2.02688,0 3.67738,-1.6375 3.67738,-3.6775 0,-2.0274 -1.64998,-3.6773 -3.67738,-3.6773 z m 62.13694,4.4678 0.003,0 a 0.29532529,0.29532529 0 0 0 -0.26984,0.171 c -0.57907,1.2518 -1.10056,2.6077 -1.02196,4.3779 a 0.29532529,0.29532529 0 0 0 0.0144,0.077 c -1.69499,1.921 -7.21121,7.3901 -8.82335,8.20784 -0.32064,0.1402 -0.58928,0.198 -1.34812,0.2926 -1.46187,0.1823 -4.78271,0.2076 -11.22539,-0.5925 -1.95736,-0.2387 -3.788,0.4235 -5.11564,1.6353 -0.58771,-0.5777 -1.29254,-1.0365 -2.06457,-1.3258 -0.96318,-0.361 -2.02143,-0.4645 -3.03662,-0.2971 -1.09914,0.1291 -2.16201,0.5544 -3.04675,1.2192 -0.95216,0.715 -1.69595,1.7103 -2.08446,2.8358 -0.17902,0.5195 -0.28346,1.0645 -0.30835,1.6134 0,0.7199 0.14811,1.4405 0.44208,2.0977 0.4592,1.0275 1.24285,1.8692 2.01435,2.6891 0.21776,0.2314 0.43649,0.4641 0.60612,0.7326 0.0968,0.1525 0.17701,0.3156 0.23839,0.4854 0.0387,0.1792 0.011,0.3733 -0.083,0.5317 -0.063,0.1069 -0.15316,0.1971 -0.25813,0.2635 -0.10445,0.066 -0.22432,0.1089 -0.34642,0.1285 -0.3272,0.052 -0.66095,-0.061 -0.94501,-0.2301 -0.4753,-0.283 -0.84995,-0.7301 -1.04618,-1.2471 -0.26193,0.2984 -0.44147,0.6678 -0.51552,1.0578 -0.0735,0.39 -0.0387,0.7994 0.0934,1.1728 0.15525,0.4301 0.44363,0.8077 0.80227,1.0913 0.35863,0.2835 0.7864,0.4749 1.23182,0.5791 0.95381,0.2234 1.99663,0.036 2.81231,-0.5071 0.86761,-0.578 1.46069,-1.552 1.57512,-2.5885 0.0569,-0.7507 -0.0498,-1.513 -0.30515,-2.2206 -0.20949,-0.5767 -0.5188,-1.1156 -0.89234,-1.6023 -0.22163,-0.2886 -0.4665,-0.5597 -0.67763,-0.8561 -0.21113,-0.2964 -0.39015,-0.6231 -0.46085,-0.9801 -0.0166,-0.091 -0.0276,-0.1828 -0.0387,-0.2747 -0.0276,-0.2456 -0.0574,-0.4942 -0.0276,-0.7395 0.0553,-0.4238 0.28674,-0.8106 0.58958,-1.1119 0.37085,-0.3685 0.8416,-0.6211 1.32681,-0.8137 1.05333,-0.4176 2.20835,-0.5605 3.33454,-0.4384 -0.69626,1.076 -1.08246,2.3734 -1.02115,3.7703 l -0.0166,-0.01 c 0,3.1867 1.02182,5.5794 2.21096,8.0097 l -0.34612,4.3113 c -0.009,0.2036 0.0127,0.3766 0.0592,0.5441 l 2.42246,9.1416 c 0.2521,1.0051 1.27757,1.6103 2.2792,1.3449 1.0017,-0.2655 1.59285,-1.2991 1.31407,-2.2971 l -2.19755,-8.2927 c 1.74185,-1.8173 3.07701,-3.6533 3.77975,-5.5185 3.51415,0.8789 6.7578,1.4322 9.86646,1.4091 0.0781,0 0.15444,0.01 0.23139,0.011 l 1.84279,13.0633 c 0.0957,1.0324 1.01757,1.7872 2.04855,1.6771 1.03098,-0.1103 1.77239,-1.0433 1.64753,-2.0726 l -0.83647,-12.6142 c 0.68889,-0.3625 1.44482,-0.9965 2.30796,-2.058 3.06627,-3.7709 4.10366,-8.3557 4.90176,-13.4643 l 7.66858,2.0553 c 0.87564,0.2346 1.80446,-0.4138 2.08304,-1.4533 0.27852,-1.03964 -0.40256,-1.64634 -1.07732,-2.29974 l -5.91772,-5.73 c 0,-0.01 -0.006,-0.01 -0.009,-0.01 -0.33517,-0.3323 -0.76979,-0.6284 -1.25261,-0.8623 0.12262,-1.0183 0.28272,-2.011 0.63435,-2.9515 a 0.29532529,0.29532529 0 0 0 -0.26804,-0.3987 0.29532529,0.29532529 0 0 0 -0.1788,0.054 c -0.77895,0.549 -1.55612,1.1605 -2.23331,2.001 -0.34678,-0.8378 -0.64925,-1.6775 -0.79638,-2.5573 a 0.29532529,0.29532529 0 0 0 -0.2898,-0.2463 z m -53.07579,14.68984 c -0.65402,0 -1.30953,0.024 -1.95685,0.1214 -2.44093,0.3681 -4.66165,1.5766 -6.832,2.7526 -2.17163,1.1767 -4.40017,2.358 -6.83715,2.7601 -1.21797,0.201 -2.46902,0.201 -3.68706,0 l 0,2.0602 0.091,0.015 c 1.1574,0.191 2.34751,0.191 3.50491,0 2.31742,-0.3824 4.49359,-1.5251 6.66215,-2.7001 2.16976,-1.1757 4.44516,-2.4264 7.01505,-2.8139 0.55233,-0.083 1.09982,-0.1141 1.6371,-0.1241 0.53735,-0.01 1.0645,7e-4 1.57653,7e-4 l 0,-2.0678 c -0.38925,0 -0.78119,-0.01 -1.17364,0 z m 10e-4,3.186 c -0.64307,0 -1.27124,0.023 -1.87542,0.1142 -2.31205,0.3487 -4.47824,1.5151 -6.64926,2.6914 -2.17468,1.1783 -4.45611,2.3985 -7.01244,2.8203 -1.24844,0.206 -2.52817,0.2104 -3.77803,0.014 l 0,4.3422 c 0.89711,-0.9232 1.99014,-1.6822 3.24968,-2.204 1.24293,-0.5148 2.53883,-0.7539 3.81051,-0.7431 3.81506,0.032 7.42986,2.3099 8.97443,6.0388 0.65074,1.571 0.85747,3.2201 0.6795,4.8061 l 1.94663,0 1.8261,0 0,-2.2349 0,-5.6696 13.84229,0 c -0.48692,-0.3999 -0.88593,-0.9246 -1.11368,-1.5557 l -10e-4,0 -0.001,0 c -0.0583,-0.1649 -0.10243,-0.3339 -0.13521,-0.5051 l -12.59034,0 0,-7.9044 c -0.39455,0 -0.78581,0 -1.17171,0 z m 52.97328,5.1389 c -0.61417,1.2456 -1.3546,2.4401 -2.27354,3.5703 -0.6573,0.8083 -1.30483,1.4206 -1.93502,1.8698 l 1.59881,11.3319 c 0.0957,1.0324 1.01757,1.7873 2.04855,1.6773 1.03098,-0.1103 1.77216,-1.0433 1.64738,-2.0726 l -1.08618,-16.3767 z m -65.2377,3.0137 c -1.12574,-0.01 -2.27078,0.2013 -3.37343,0.658 -4.41044,1.8268 -6.5176902,6.9144 -4.69085,11.3249 1.82692,4.4104 6.9144,6.5178 11.32484,4.6909 4.41045,-1.8269 6.51778,-6.9145 4.69093,-11.3249 -1.37017,-3.3078 -4.57434,-5.3202 -7.95149,-5.3489 z m 45.62635,1.7199 c -0.59651,1.2581 -1.42001,2.4694 -2.41144,3.6508 l 2.29693,8.668 c 0.2521,1.0051 1.2775,1.6102 2.2792,1.3448 1.0017,-0.2655 1.59277,-1.2989 1.314,-2.297 l -2.19755,-8.2927 c 0.75802,-0.7909 1.43536,-1.5853 2.02225,-2.3841 -1.08424,-0.193 -2.18384,-0.4255 -3.30339,-0.6898 z m -45.63305,0.5078 c 0.64619,0 1.28241,0.1064 1.88905,0.2978 l -1.40772,3.3987 c -0.17492,-0.034 -0.35267,-0.052 -0.53095,-0.052 -0.17812,9e-4 -0.3558,0.019 -0.5305,0.053 l -1.40586,-3.3943 c 0.65745,-0.209 1.32674,-0.3074 1.98598,-0.3034 z m 2.92159,0.725 c 1.13982,0.593 2.10748,1.5313 2.73543,2.7445 l -3.39399,1.4059 c -0.19943,-0.2961 -0.45392,-0.5512 -0.74938,-0.7515 l 1.40794,-3.3989 z m -5.93996,0.01 1.406,3.3945 c -0.29613,0.1994 -0.55128,0.4537 -0.75168,0.7492 l -3.39794,-1.4075 c 0.593,-1.1398 1.53034,-2.1082 2.74362,-2.7362 z m -3.17094,3.7687 3.39793,1.4076 c -0.0342,0.1749 -0.0515,0.3526 -0.0519,0.5308 7.4e-4,0.1781 0.0186,0.3558 0.0531,0.5305 l -3.39407,1.4059 c -0.41391,-1.302 -0.39178,-2.6495 -0.005,-3.8748 z m 12.27447,0 c 0.41384,1.3019 0.39178,2.6493 0.005,3.8746 l -3.39823,-1.4076 c 0.0343,-0.1749 0.0517,-0.3526 0.0521,-0.5308 -7.4e-4,-0.1781 -0.0186,-0.3557 -0.0533,-0.5304 l 3.39421,-1.4058 z m -8.44743,3.4991 c 0.19951,0.2961 0.45377,0.5512 0.74931,0.7515 l -1.40742,3.3979 c -1.13983,-0.593 -2.10823,-1.5303 -2.73625,-2.7436 l 3.39436,-1.4058 z m 4.62701,7e-4 3.39786,1.4075 c -0.593,1.1398 -1.53034,2.1082 -2.74362,2.7362 l -1.40578,-3.3943 c 0.29606,-0.1995 0.55122,-0.4539 0.75154,-0.7494 z m -1.78386,1.1771 1.40571,3.3942 c -1.30193,0.4138 -2.64938,0.392 -3.87465,0.01 l 1.40764,-3.3984 c 0.17485,0.034 0.3526,0.052 0.5308,0.052 0.17813,-7e-4 0.3558,-0.019 0.5305,-0.053 z" fill="#000000"/></g></svg>