<svg xmlns="http://www.w3.org/2000/svg" xmlns:xlink="http://www.w3.org/1999/xlink" version="1.1" x="0px" y="0px" viewBox="0 0 64 80" enable-background="new 0 0 64 64" xml:space="preserve"><g><g><path fill="#000000" d="M32,36.9c-4.3,0-7.9,2.8-9.1,6.7h18.2C39.9,39.8,36.3,36.9,32,36.9z"/><path fill="#000000" d="M45.5,45.2c-0.4-4.7-3.3-8.9-7.6-11c-0.7-0.3-1.1-1.1-1.1-1.9v-0.7c0-0.8,0.4-1.5,1.1-1.9    c4.3-2.1,7.2-6.3,7.6-11c1.8-0.1,3.3-1.7,3.3-3.5c0-1.9-1.6-3.5-3.5-3.5H18.7c-1.9,0-3.5,1.6-3.5,3.5c0,1.9,1.5,3.4,3.3,3.5    c0.5,5,3.7,9.4,8.4,11.3c0.8,0.3,1.2,1,1.2,1.9c0,0.8-0.5,1.6-1.2,1.9c-4.8,1.9-7.9,6.3-8.4,11.3c-1.8,0.1-3.3,1.7-3.3,3.5    c0,1.9,1.6,3.5,3.5,3.5h26.6c1.9,0,3.5-1.6,3.5-3.5C48.8,46.9,47.4,45.3,45.5,45.2z M17.7,15.3c0-0.6,0.5-1,1-1h26.6    c0.6,0,1,0.5,1,1c0,0.6-0.5,1-1,1h-1H19.7h-1C18.2,16.3,17.7,15.8,17.7,15.3z M27.8,36.2c1.7-0.7,2.8-2.3,2.8-4.2    c0-1.9-1.1-3.5-2.8-4.2c-3.8-1.5-6.4-5-6.8-9h22c-0.4,3.7-2.8,7.1-6.2,8.7c-1.6,0.7-2.6,2.4-2.6,4.1v0.7c0,1.8,1,3.4,2.6,4.1    c3.4,1.7,5.8,5,6.2,8.7H21C21.4,41.2,24,37.8,27.8,36.2z M45.3,49.8H18.7c-0.6,0-1-0.5-1-1s0.5-1,1-1h1h24.7h1c0.6,0,1,0.5,1,1    S45.8,49.8,45.3,49.8z"/></g></g></svg>